<svg xmlns="http://www.w3.org/2000/svg" viewBox="0 0 800 520" role="img" aria-labelledby="t d">

<title id="t">Hooked vs. hookless</title>
<desc id="d">Cross-section of the bead seat comparing a hooked rim (visible hook lip) and a hookless rim (straight wall), with the ETRTO pressure limit note for hookless. — © Carlos Eduardo Ravello Joo · BikeLab Studio · CC BY 4.0 · bikelabstudio.com</desc>
<metadata>
 <RDF xmlns:rdf="http://www.w3.org/1999/02/22-rdf-syntax-ns#" xmlns:dc="http://purl.org/dc/elements/1.1/" xmlns:cc="http://creativecommons.org/ns#">
  <Work>
   <title>Hooked vs. hookless</title>
   <type></type>
   <creator><Agent><title>Carlos Eduardo Ravello Joo · ORCID 0009-0007-5631-7436 · ISNI 0000 0005 3051 4085</title></Agent></creator>
   <publisher><Agent><title>BikeLab Studio · ISNI 0000 0005 3051 4237</title></Agent></publisher>
   <rights>© 2026 Carlos Eduardo Ravello Joo — BikeLab Studio. CC BY 4.0: reuse permitido con atribución obligatoria a bikelabstudio.com</rights>
   <source>https://www.bikelabstudio.com/</source>
   <identifier>https://orcid.org/0009-0007-5631-7436</identifier>
   <relation>https://www.google.com/search?kgmid=/g/11zb6pmf10</relation>
   <date>2026</date>
   <license></license>
  </Work>
  <License>
   <permits></permits>
   <permits></permits>
   <permits></permits>
   <requires></requires>
   <requires></requires>
  </License>
 </RDF>
</metadata>
<defs>
<marker id="arrC" viewBox="0 0 10 10" refX="8" refY="5" markerWidth="7" markerHeight="7" orient="auto-start-reverse"><path d="M0,0 L10,5 L0,10 Z" fill="#4fb8c8"></path></marker>
<marker id="arrL" viewBox="0 0 10 10" refX="8" refY="5" markerWidth="7" markerHeight="7" orient="auto-start-reverse"><path d="M0,0 L10,5 L0,10 Z" fill="#e0e0e0"></path></marker>
<marker id="arrG" viewBox="0 0 10 10" refX="8" refY="5" markerWidth="7" markerHeight="7" orient="auto-start-reverse"><path d="M0,0 L10,5 L0,10 Z" fill="#6a6a6a"></path></marker>
<marker id="arrA" viewBox="0 0 10 10" refX="8" refY="5" markerWidth="7" markerHeight="7" orient="auto-start-reverse"><path d="M0,0 L10,5 L0,10 Z" fill="#e8a13a"></path></marker>
</defs>

<text x="40" y="52" font-family="&#39;Inter&#39;, sans-serif" font-size="24" font-weight="800" fill="#e0e0e0">Hooked vs. hookless</text>
<text x="200" y="110" font-family="&#39;IBM Plex Mono&#39;, monospace" font-size="16" font-weight="700" fill="#e0e0e0" text-anchor="middle">Hooked</text>
<text x="600" y="110" font-family="&#39;IBM Plex Mono&#39;, monospace" font-size="16" font-weight="700" fill="#e0e0e0" text-anchor="middle">Hookless</text>
<line x1="400" y1="90" x2="400" y2="460" stroke="#6a6a6a" stroke-width="1.25" stroke-dasharray="4 5"></line>
<rect x="110" y="300" width="180" height="40" rx="0" fill="#6a6a6a" stroke="none" stroke-width="0"></rect>
    <path d="M110,340 L110,260 L128,248 L144,258 L144,300 L256,300 L256,258 L272,248 L290,260 L290,340 Z" fill="#6a6a6a" fill-opacity="0.5" stroke="#e0e0e0" stroke-width="2" stroke-linejoin="round"></path>
    <circle cx="136" cy="253" r="7" fill="#e0e0e0"></circle><circle cx="264" cy="253" r="7" fill="#e0e0e0"></circle>
<rect x="510" y="300" width="180" height="40" rx="0" fill="#6a6a6a" stroke="none" stroke-width="0"></rect>
    <path d="M510,340 L510,250 L544,250 L544,300 L656,300 L656,250 L690,250 L690,340 Z" fill="#6a6a6a" fill-opacity="0.5" stroke="#e0e0e0" stroke-width="2" stroke-linejoin="round"></path>
    <circle cx="544" cy="253" r="7" fill="#e0e0e0"></circle><circle cx="656" cy="253" r="7" fill="#e0e0e0"></circle>
<rect x="490" y="420" width="220" height="50" rx="8" fill="none" stroke="#e8a13a" stroke-width="2"></rect>
<text x="600" y="450" font-family="&#39;IBM Plex Mono&#39;, monospace" font-size="13" font-weight="700" fill="#e8a13a" text-anchor="middle">Hookless: max 5 bar / 72.5 PSI (ETRTO)</text>
<line x1="600" y1="360" x2="600" y2="420" stroke="#e8a13a" stroke-width="1.5" marker-end="url(#arrA)"></line>

<text x="780" y="505" text-anchor="end" font-family="&#39;IBM Plex Mono&#39;, monospace" font-size="10" fill="#6a6a6a">bikelabstudio.com · © C. E. Ravello Joo · CC BY 4.0</text>
</svg>